<svg xmlns="http://www.w3.org/2000/svg" viewBox="0 0 1100 640" font-family="Outfit, sans-serif">
<rect width="1100" height="640" fill="#12110e"/>
<text x="24" y="32" fill="#f3efe6" font-size="20">Nasdaq-100 cash daily, real OHLC.</text>
<text x="24" y="56" fill="#a39b8c" font-size="13">Monday 5 Oct closed up. No Tuesday cash bar yet.</text>
<line x1="70" y1="240.4" x2="1000" y2="240.4" stroke="#7d9a78" stroke-dasharray="4 4"/>
<text x="840" y="234.4" fill="#7d9a78" font-size="13">30798 30798</text>
<line x1="70" y1="143.3" x2="1000" y2="143.3" stroke="#d7a441" stroke-dasharray="4 4"/>
<text x="840" y="137.3" fill="#d7a441" font-size="13">31076 31076</text>
<line x1="70" y1="129.0" x2="1000" y2="129.0" stroke="#e6d7b4" stroke-dasharray="4 4"/>
<text x="840" y="123.0" fill="#e6d7b4" font-size="13">31117 31117</text>
<line x1="147.5" y1="351.5" x2="147.5" y2="491.0" stroke="#e07a5f" stroke-width="2"/>
<rect x="138.5" y="370.3" width="18" height="52.3" fill="#e07a5f"/>
<text x="129.5" y="542" fill="#a39b8c" font-size="12">28</text>
<line x1="302.5" y1="369.1" x2="302.5" y2="437.0" stroke="#e07a5f" stroke-width="2"/>
<rect x="293.5" y="375.3" width="18" height="25.5" fill="#e07a5f"/>
<text x="284.5" y="542" fill="#a39b8c" font-size="12">29</text>
<line x1="457.5" y1="299.1" x2="457.5" y2="376.6" stroke="#e07a5f" stroke-width="2"/>
<rect x="448.5" y="372.0" width="18" height="4.6" fill="#e07a5f"/>
<text x="439.5" y="542" fill="#a39b8c" font-size="12">30</text>
<line x1="612.5" y1="304.0" x2="612.5" y2="423.4" stroke="#e07a5f" stroke-width="2"/>
<rect x="603.5" y="332.9" width="18" height="11.2" fill="#e07a5f"/>
<text x="594.5" y="542" fill="#a39b8c" font-size="12">1</text>
<line x1="767.5" y1="163.8" x2="767.5" y2="261.8" stroke="#e07a5f" stroke-width="2"/>
<rect x="758.5" y="215.7" width="18" height="21.4" fill="#e07a5f"/>
<text x="749.5" y="542" fill="#a39b8c" font-size="12">2</text>
<line x1="922.5" y1="129.0" x2="922.5" y2="240.4" stroke="#7d9a78" stroke-width="2"/>
<rect x="913.5" y="143.3" width="18" height="92.1" fill="#7d9a78"/>
<text x="904.5" y="542" fill="#a39b8c" font-size="12">5</text>
</svg>
